<svg xmlns="http://www.w3.org/2000/svg" viewBox="0 0 64 64"><g id="_04-Date" data-name="04-Date"><rect x="1" y="59" width="62" height="4" style="fill:#d6e0eb"/><path d="M1,4V15H63V4Zm14,7H7V7h8Zm14,0H21V7h8Zm14,0H35V7h8Zm14,0H49V7h8Z" style="fill:#e63b47"/><path d="M10,1h2a1,1,0,0,1,1,1V8a0,0,0,0,1,0,0H9A0,0,0,0,1,9,8V2A1,1,0,0,1,10,1Z" style="fill:#d6e0eb"/><path d="M24,1h2a1,1,0,0,1,1,1V8a0,0,0,0,1,0,0H23a0,0,0,0,1,0,0V2A1,1,0,0,1,24,1Z" style="fill:#d6e0eb"/><path d="M38,1h2a1,1,0,0,1,1,1V8a0,0,0,0,1,0,0H37a0,0,0,0,1,0,0V2A1,1,0,0,1,38,1Z" style="fill:#d6e0eb"/><path d="M52,1h2a1,1,0,0,1,1,1V8a0,0,0,0,1,0,0H51a0,0,0,0,1,0,0V2A1,1,0,0,1,52,1Z" style="fill:#d6e0eb"/><rect x="1" y="15" width="62" height="44" style="fill:#fbfbfb"/><path d="M54,6H53a1,1,0,0,1-1-1V2a1,1,0,0,1,1-1H52a1,1,0,0,0-1,1V8h4V5A1,1,0,0,1,54,6Z" style="fill:#a8b7d4"/><path d="M40,6H39a1,1,0,0,1-1-1V2a1,1,0,0,1,1-1H38a1,1,0,0,0-1,1V8h4V5A1,1,0,0,1,40,6Z" style="fill:#a8b7d4"/><path d="M26,6H25a1,1,0,0,1-1-1V2a1,1,0,0,1,1-1H24a1,1,0,0,0-1,1V8h4V5A1,1,0,0,1,26,6Z" style="fill:#a8b7d4"/><path d="M12,6H11a1,1,0,0,1-1-1V2a1,1,0,0,1,1-1H10A1,1,0,0,0,9,2V8h4V5A1,1,0,0,1,12,6Z" style="fill:#a8b7d4"/><path d="M1,15V59H63V53H34C19.088,53,7,41.912,7,27V15Z" style="fill:#edf4fa"/><polygon points="1 63 1 59 63 59 63 61 6 61 6 62 63 62 63 63 1 63" style="fill:#8394b2"/><path d="M26.32,30.434A1.707,1.707,0,0,1,26.8,28l5.357-3.575A2.549,2.549,0,0,1,33.568,24h0A2.356,2.356,0,0,1,36,26.272V46a2,2,0,0,1-2,2h0a2,2,0,0,1-2-2V29l-2.951,1.871a1.99,1.99,0,0,1-2.729-.437Z" style="fill:#e63b47"/><path d="M62,58H2V52H0V63a1,1,0,0,0,1,1H63a1,1,0,0,0,1-1V25H62ZM2,62V60H62v2Z"/><rect x="62" y="21" width="2" height="2"/><path d="M63,3H58V5h4v9H2V5H6V3H1A1,1,0,0,0,0,4V50H2V16H62v3h2V4A1,1,0,0,0,63,3Z"/><path d="M6,11a1,1,0,0,0,1,1h8a1,1,0,0,0,1-1V7a1,1,0,0,0-1-1H14V5h8V6H21a1,1,0,0,0-1,1v4a1,1,0,0,0,1,1h8a1,1,0,0,0,1-1V7a1,1,0,0,0-1-1H28V5h8V6H35a1,1,0,0,0-1,1v4a1,1,0,0,0,1,1h8a1,1,0,0,0,1-1V7a1,1,0,0,0-1-1H42V5h8V6H49a1,1,0,0,0-1,1v4a1,1,0,0,0,1,1h8a1,1,0,0,0,1-1V7a1,1,0,0,0-1-1H56V2a2,2,0,0,0-2-2H52a2,2,0,0,0-2,2V3H42V2a2,2,0,0,0-2-2H38a2,2,0,0,0-2,2V3H28V2a2,2,0,0,0-2-2H24a2,2,0,0,0-2,2V3H14V2a2,2,0,0,0-2-2H10A2,2,0,0,0,8,2V6H7A1,1,0,0,0,6,7ZM55,9a1,1,0,0,0,1-1v2H50V8a1,1,0,0,0,1,1ZM52,2h2V7H52ZM41,9a1,1,0,0,0,1-1v2H36V8a1,1,0,0,0,1,1ZM38,2h2V7H38ZM27,9a1,1,0,0,0,1-1v2H22V8a1,1,0,0,0,1,1ZM24,2h2V7H24ZM10,2h2V7H10ZM8,8A1,1,0,0,0,9,9h4a1,1,0,0,0,1-1v2H8Z"/><path d="M34,49a3,3,0,0,0,3-3V26.272A3.358,3.358,0,0,0,33.568,23a3.53,3.53,0,0,0-1.967.591l-5.358,3.576a2.746,2.746,0,0,0-1.2,1.8,2.671,2.671,0,0,0,.462,2.049,3,3,0,0,0,4.078.7l1.416-.9V46A3,3,0,0,0,34,49ZM28.476,30.052a.99.99,0,0,1-1.341-.2h0a.675.675,0,0,1-.124-.527.769.769,0,0,1,.342-.5l5.358-3.575A1.553,1.553,0,0,1,33.568,25,1.361,1.361,0,0,1,35,26.272V46a1,1,0,0,1-2,0V29a1,1,0,0,0-1.535-.845Z"/></g></svg>